<svg xmlns="http://www.w3.org/2000/svg" width="1280" height="720" viewBox="0 0 1280 720">
  <defs>
    <linearGradient id="bg" x1="0" y1="0" x2="1" y2="1">
      <stop offset="0" stop-color="#f8f3e7"/>
      <stop offset="0.52" stop-color="#e7f2ed"/>
      <stop offset="1" stop-color="#174f45"/>
    </linearGradient>
    <radialGradient id="glow" cx="72%" cy="44%" r="56%">
      <stop offset="0" stop-color="#ff6b3d" stop-opacity="0.42"/>
      <stop offset="0.38" stop-color="#ff6b3d" stop-opacity="0.12"/>
      <stop offset="1" stop-color="#ff6b3d" stop-opacity="0"/>
    </radialGradient>
    <filter id="shadow" x="-20%" y="-20%" width="140%" height="140%">
      <feDropShadow dx="0" dy="22" stdDeviation="20" flood-color="#173b33" flood-opacity="0.22"/>
    </filter>
    <filter id="soft" x="-20%" y="-20%" width="140%" height="140%">
      <feGaussianBlur stdDeviation="18"/>
    </filter>
  </defs>

  <rect width="1280" height="720" fill="url(#bg)"/>
  <rect width="1280" height="720" fill="url(#glow)"/>

  <g opacity="0.16" stroke="#0f6e56" stroke-width="2" fill="none">
    <path d="M830 124 C910 96 1010 108 1096 164 C1188 224 1226 320 1216 414"/>
    <path d="M855 158 C932 136 1009 154 1076 202 C1148 254 1182 324 1178 395"/>
    <path d="M884 194 C944 180 1008 192 1064 232 C1120 272 1150 326 1150 386"/>
  </g>

  <circle cx="1030" cy="360" r="186" fill="#ffffff" opacity="0.20" filter="url(#soft)"/>
  <circle cx="1042" cy="358" r="126" fill="#0f6e56" opacity="0.12"/>
  <circle cx="1042" cy="358" r="82" fill="#cf5730" opacity="0.18"/>
  <path d="M990 358 L1034 402 L1110 300" fill="none" stroke="#ffffff" stroke-width="26" stroke-linecap="round" stroke-linejoin="round" opacity="0.88"/>

  <rect x="58" y="52" width="1164" height="616" rx="34" fill="none" stroke="#ffffff" stroke-opacity="0.48" stroke-width="2"/>

  <g transform="translate(86 88)">
    <text x="0" y="0" dominant-baseline="hanging" font-family="Inter, Helvetica, Arial, sans-serif" font-size="24" font-weight="900" letter-spacing="6" fill="#0f6e56">BIOENERGÉTICA TRANSGENERACIONAL</text>
    <rect x="0" y="42" width="98" height="5" rx="3" fill="#cf5730"/>
  </g>

  <g filter="url(#shadow)">
    <rect x="80" y="158" width="760" height="424" rx="34" fill="#fbf7ee" fill-opacity="0.88"/>
    <rect x="80" y="158" width="760" height="424" rx="34" fill="none" stroke="#ffffff" stroke-opacity="0.75"/>
  </g>

  <g transform="translate(122 198)">
    <text x="0" y="0" dominant-baseline="hanging" font-family="Inter, Helvetica, Arial, sans-serif" font-size="26" font-weight="900" letter-spacing="5" fill="#cf5730">ACTUALIZACIÓN EN</text>
    <text x="0" y="60" dominant-baseline="hanging" font-family="Georgia, 'Times New Roman', serif" font-size="72" font-weight="900" fill="#262620">Bioenergética</text>
    <text x="0" y="140" dominant-baseline="hanging" font-family="Georgia, 'Times New Roman', serif" font-size="60" font-weight="900" fill="#262620">Transgeneracional</text>
    <text x="0" y="252" dominant-baseline="hanging" font-family="Inter, Helvetica, Arial, sans-serif" font-size="34" font-weight="900" fill="#0f6e56">4 sesiones en vivo</text>
    <text x="0" y="304" dominant-baseline="hanging" font-family="Inter, Helvetica, Arial, sans-serif" font-size="30" font-weight="800" fill="#174f45">Viernes · 5:30 a 7:30 pm</text>
    <text x="0" y="352" dominant-baseline="hanging" font-family="Inter, Helvetica, Arial, sans-serif" font-size="28" font-weight="800" fill="#174f45">Presencial o por Zoom</text>
  </g>

  <g transform="translate(858 366)" filter="url(#shadow)">
    <rect x="0" y="0" width="332" height="238" rx="28" fill="#fbf7ee" fill-opacity="0.94"/>
    <text x="28" y="24" dominant-baseline="hanging" font-family="Inter, Helvetica, Arial, sans-serif" font-size="25" font-weight="900" fill="#cf5730">FECHAS</text>
    <text x="28" y="70" dominant-baseline="hanging" font-family="Georgia, 'Times New Roman', serif" font-size="54" font-weight="900" fill="#262620">10 · 24</text>
    <text x="28" y="126" dominant-baseline="hanging" font-family="Georgia, 'Times New Roman', serif" font-size="54" font-weight="900" fill="#262620">31 julio</text>
    <text x="28" y="184" dominant-baseline="hanging" font-family="Inter, Helvetica, Arial, sans-serif" font-size="28" font-weight="900" fill="#0f6e56">7 DE AGOSTO</text>
    <rect x="28" y="214" width="276" height="1.5" fill="#d9d0c1"/>
  </g>

  <g transform="translate(86 620)">
    <rect x="0" y="-34" width="570" height="58" rx="29" fill="#cf5730"/>
    <text x="28" y="-20" dominant-baseline="hanging" font-family="Inter, Helvetica, Arial, sans-serif" font-size="28" font-weight="900" fill="#ffffff">Curso de actualización · cupo limitado</text>
  </g>
</svg>
