<svg width="1600" height="1000" viewBox="0 0 1600 1000" fill="none" xmlns="http://www.w3.org/2000/svg" role="img" aria-labelledby="title desc">
  <title id="title">Brand board Wellvibe Premium 01</title>
  <desc id="desc">Tablero de marca premium para Wellvibe.</desc>
  <rect width="1600" height="1000" fill="#F6F1E8"/>
  <text x="90" y="120" fill="#142321" font-family="Manrope, Inter, Arial, sans-serif" font-size="58" font-weight="720">Wellvibe</text>
  <text x="94" y="164" fill="#55746B" font-family="Manrope, Inter, Arial, sans-serif" font-size="24" font-weight="520" letter-spacing="4">PREMIUM BRAND DIRECTION 01</text>
  <g transform="translate(90 250)">
    <rect x="0" y="0" width="680" height="280" rx="34" fill="#FDFBF7" stroke="#E0D8CB"/>
    <text x="58" y="158" fill="#142321" font-family="Manrope, Inter, Aptos, Arial, sans-serif" font-size="100" font-weight="650" letter-spacing="-1">well</text>
    <text x="285" y="158" fill="#142321" font-family="Manrope, Inter, Aptos, Arial, sans-serif" font-size="100" font-weight="650" letter-spacing="-1">ibe</text>
    <path d="M268 86L300 158L333 86" stroke="#142321" stroke-width="12" stroke-linecap="round" stroke-linejoin="round"/>
    <path d="M300 158C308 141 317 123 325 108" stroke="#B88A55" stroke-width="5" stroke-linecap="round"/>
  </g>
  <g transform="translate(850 250)">
    <rect x="0" y="0" width="280" height="280" rx="64" fill="#142321"/>
    <path d="M60 98L94 190L126 116L160 190L196 98" stroke="#F6F1E8" stroke-width="18" stroke-linecap="round" stroke-linejoin="round"/>
    <path d="M196 98L228 190L256 98" stroke="#F6F1E8" stroke-width="18" stroke-linecap="round" stroke-linejoin="round"/>
    <path d="M196 98C207 130 217 162 228 190" stroke="#B88A55" stroke-width="6" stroke-linecap="round"/>
  </g>
  <g transform="translate(90 620)">
    <rect x="0" y="0" width="190" height="190" rx="28" fill="#142321"/>
    <text x="0" y="232" fill="#142321" font-family="Manrope, Inter, Arial, sans-serif" font-size="22" font-weight="650">Grafito verde</text>
    <text x="0" y="264" fill="#7A817D" font-family="Manrope, Inter, Arial, sans-serif" font-size="20">#142321</text>
  </g>
  <g transform="translate(320 620)">
    <rect x="0" y="0" width="190" height="190" rx="28" fill="#55746B"/>
    <text x="0" y="232" fill="#142321" font-family="Manrope, Inter, Arial, sans-serif" font-size="22" font-weight="650">Salvia profunda</text>
    <text x="0" y="264" fill="#7A817D" font-family="Manrope, Inter, Arial, sans-serif" font-size="20">#55746B</text>
  </g>
  <g transform="translate(550 620)">
    <rect x="0" y="0" width="190" height="190" rx="28" fill="#B88A55"/>
    <text x="0" y="232" fill="#142321" font-family="Manrope, Inter, Arial, sans-serif" font-size="22" font-weight="650">Cobre suave</text>
    <text x="0" y="264" fill="#7A817D" font-family="Manrope, Inter, Arial, sans-serif" font-size="20">#B88A55</text>
  </g>
  <g transform="translate(780 620)">
    <rect x="0" y="0" width="190" height="190" rx="28" fill="#F6F1E8" stroke="#D8D0C4" stroke-width="3"/>
    <text x="0" y="232" fill="#142321" font-family="Manrope, Inter, Arial, sans-serif" font-size="22" font-weight="650">Marfil clinico</text>
    <text x="0" y="264" fill="#7A817D" font-family="Manrope, Inter, Arial, sans-serif" font-size="20">#F6F1E8</text>
  </g>
  <text x="1160" y="666" fill="#142321" font-family="Manrope, Inter, Arial, sans-serif" font-size="34" font-weight="700">Sistema</text>
  <text x="1160" y="720" fill="#55746B" font-family="Manrope, Inter, Arial, sans-serif" font-size="24" font-weight="500">Wordmark primero.</text>
  <text x="1160" y="760" fill="#55746B" font-family="Manrope, Inter, Arial, sans-serif" font-size="24" font-weight="500">Monograma solo como sello.</text>
  <text x="1160" y="800" fill="#55746B" font-family="Manrope, Inter, Arial, sans-serif" font-size="24" font-weight="500">Acento cobre muy controlado.</text>
</svg>

